The Girl from the Naked Eye (2012) 1080p AC3+DTS Eng NL Subs
.
[IMG]http://img824.imageshack.us/img824/7160/ne2012.jpg[/IMG]
.
Verenigde Staten
Actie / Thriller

geregisseerd door David Ren
met Jason Yee, Samantha Streets en Gary Stretch

Jake is een chauffeur voor een louche escortbureau dat opereert vanuit 'The Naked Eye' club. Hij is een crimineel type die valt voor de geestige escortdame Sandy. Maar op een avond wordt Sandy vermoord aangetroffen. De enige aanwijzingen die achter zijn gebleven zijn telefoontjes die op de avond van de moord zijn gepleegd met haar telefoon. Om Sandy's dood te kunnen wreken moet Jake alles op het spel zetten om de moordenaar te vinden.
. 
http://www.moviemeter.nl/film/79400
.
PLOT
.
When Sandy, a call girl at "The Naked Eye", ends up dead, her friend and only ally in the world, Jake, goes on a manhunt to find out who killed her. 
. 
http://www.imdb.com/title/tt1079360/
.
INFO
.
Video: 1920x816
Audio: English AC3+DTS
Subs: Dutch, English, Romanian
NL Vertaling: TheTome
.
Enjoy
.
Format                           : Matroska
File size                        : 8.11 GiB
Duration                         : 1h 23mn
Overall bit rate                 : 13.9 Mbps
Encoded date                     : UTC 2012-01-14 15:29:52
Writing application              : mkvmerge v5.2.0 ('I can't explain') built on Dec 18 2011 18:12:03
Writing library                  : libebml v1.2.3 + libmatroska v1.3.0

Video
ID                               : 1
Format                           : AVC
Format/Info                      : Advanced Video Codec
Format profile                   : High@L4.1
Format settings, CABAC           : Yes
Format settings, ReFrames        : 5 frames
Muxing mode                      : Container profile=Unknown@4.1
Codec ID                         : V_MPEG4/ISO/AVC
Duration                         : 1h 23mn
Bit rate mode                    : Variable
Bit rate                         : 11.7 Mbps
Maximum bit rate                 : 12.4 Mbps
Width                            : 1 920 pixels
Height                           : 816 pixels
Display aspect ratio             : 2.35:1
Frame rate                       : 23.976 fps
Standard                         : NTSC
Color space                      : YUV
Chroma subsampling               : 4:2:0
Bit depth                        : 8 bits
Scan type                        : Progressive
Bits/(Pixel*Frame)               : 0.313
Stream size                      : 6.69 GiB (83%)
Writing library                  : x264 core 115
Encoding settings                : cabac=1 / ref=5 / deblock=1:0:0 / analyse=0x3:0x113 / me=hex / subme=7 / psy=1 / psy_rd=1.00:0.00 / mixed_ref=1 / me_range=16 / chroma_me=1 / trellis=1 / 8x8dct=1 / cqm=2 / deadzone=21,11 / fast_pskip=1 / chroma_qp_offset=-4 / threads=3 / sliced_threads=0 / slices=1 / nr=0 / decimate=1 / interlaced=0 / bluray_compat=0 / constrained_intra=0 / bframes=5 / b_pyramid=0 / b_adapt=1 / b_bias=0 / direct=1 / weightb=1 / open_gop=0 / weightp=2 / keyint=250 / keyint_min=23 / scenecut=40 / intra_refresh=0 / rc_lookahead=40 / rc=2pass / mbtree=1 / bitrate=11741 / ratetol=1.0 / qcomp=0.60 / qpmin=5 / qpmax=69 / qpstep=4 / cplxblur=20.0 / qblur=0.5 / vbv_maxrate=12360 / vbv_bufsize=12353 / nal_hrd=vbr / ip_ratio=1.40 / aq=1:1.00
Color primaries                  : BT.709-5, BT.1361, IEC 61966-2-4, SMPTE RP177
Transfer characteristics         : BT.709-5, BT.1361
Matrix coefficients              : BT.709-5, BT.1361, IEC 61966-2-4 709, SMPTE RP177

Audio #1
ID                               : 2
Format                           : DTS
Format/Info                      : Digital Theater Systems
Codec ID                         : A_DTS
Duration                         : 1h 23mn
Bit rate mode                    : Constant
Bit rate                         : 1 510 Kbps
Channel(s)                       : 6 channels
Channel positions                : Front: L C R, Side: L R, LFE
Sampling rate                    : 48.0 KHz
Bit depth                        : 16 bits
Stream size                      : 904 MiB (11%)
Title                            : DTS
Language                         : English

Audio #2
ID                               : 3
Format                           : AC-3
Format/Info                      : Audio Coding 3
Mode extension                   : CM (complete main)
Codec ID                         : A_AC3
Duration                         : 1h 23mn
Bit rate mode                    : Constant
Bit rate                         : 640 Kbps
Channel(s)                       : 6 channels
Channel positions                : Front: L C R, Side: L R, LFE
Sampling rate                    : 48.0 KHz
Bit depth                        : 16 bits
Stream size                      : 383 MiB (5%)
Title                            : AC3
Language                         : English

Text #1
ID                               : 4
Format                           : UTF-8
Codec ID                         : S_TEXT/UTF8
Codec ID/Info                    : UTF-8 Plain Text
Language                         : Dutch

Text #2
ID                               : 5
Format                           : UTF-8
Codec ID                         : S_TEXT/UTF8
Codec ID/Info                    : UTF-8 Plain Text
Language                         : English

Text #3
ID                               : 6
Format                           : UTF-8
Codec ID                         : S_TEXT/UTF8
Codec ID/Info                    : UTF-8 Plain Text
Language                         : Romanian


